<svg width="109" height="57" viewBox="0 0 109 57" fill="none" xmlns="http://www.w3.org/2000/svg">
  <path d="M68 42.39C68 41.3438 68.9096 40.53 69.9493 40.6459L101.251 44.136C105.227 44.5794 108.591 41.226 108.161 37.2483C107.713 33.1161 103.434 30.5622 99.5844 32.1306L70.4171 44.0151C69.2629 44.4854 68 43.6363 68 42.39Z" fill="url(#paint0_linear_2205_14)"/>
  <path d="M0.9 45V12.465H6.795L19.035 35.37H17.145V12.465H23.19V45H17.295L5.055 22.095H6.945V45H0.9Z" fill="white"/>
  <path d="M28.7629 45V12.465H34.6579V45H28.7629Z" fill="white"/>
  <path d="M41.9468 45V12.465H47.8418C52.6418 12.465 56.3418 13.665 58.9418 16.065C61.5718 18.465 62.8868 21.915 62.8868 26.415C62.8868 30.915 61.5718 34.365 58.9418 36.765C56.3418 39.165 52.6418 40.365 47.8418 40.365H41.9468V45ZM47.8418 35.415C50.8418 35.415 53.1418 34.615 54.7418 33.015C56.3418 31.415 57.1418 29.215 57.1418 26.415C57.1418 23.615 56.3418 21.415 54.7418 19.815C53.1418 18.215 50.8418 17.415 47.8418 17.415H47.6418V35.415H47.8418Z" fill="white"/>
  <path d="M68.9468 45V12.465H74.8418C79.6418 12.465 83.3418 13.665 85.9418 16.065C88.5718 18.465 89.8868 21.915 89.8868 26.415C89.8868 30.915 88.5718 34.365 85.9418 36.765C83.3418 39.165 79.6418 40.365 74.8418 40.365H68.9468V45ZM74.8418 35.415C77.8418 35.415 80.1418 34.615 81.7418 33.015C83.3418 31.415 84.1418 29.215 84.1418 26.415C84.1418 23.615 83.3418 21.415 81.7418 19.815C80.1418 18.215 77.8418 17.415 74.8418 17.415H74.6418V35.415H74.8418Z" fill="white"/>
  <defs>
    <linearGradient id="paint0_linear_2205_14" x1="219.1" y1="39.9983" x2="202.599" y2="91.4037" gradientUnits="userSpaceOnUse">
      <stop stop-color="#DF8908"/>
      <stop offset="1" stop-color="#B415FF"/>
    </linearGradient>
  </defs>
</svg>