<svg xmlns="http://www.w3.org/2000/svg" xmlns:xlink="http://www.w3.org/1999/xlink" width="40" zoomAndPan="magnify" viewBox="0 0 30 30.000001" height="40" preserveAspectRatio="xMidYMid meet" version="1.0"><defs><g/><clipPath id="051f741e53"><path d="M 0.484375 0 L 29.515625 0 L 29.515625 29.03125 L 0.484375 29.03125 Z M 0.484375 0 " clip-rule="nonzero"/></clipPath><clipPath id="45a1cd8949"><path d="M 15.746094 11.589844 L 18.289062 11.589844 L 18.289062 12.667969 L 15.746094 12.667969 Z M 15.746094 11.589844 " clip-rule="nonzero"/></clipPath><clipPath id="7df52400e2"><path d="M 15.75 12.265625 C 15.75 12.152344 15.746094 12.132812 15.75 12.105469 C 15.757812 12.082031 15.757812 12.050781 15.777344 12.03125 C 15.800781 12.011719 15.859375 12 15.886719 12 C 15.902344 12 15.917969 12.011719 15.921875 12.007812 C 15.925781 12.007812 15.925781 12.003906 15.925781 12.003906 C 15.929688 12.003906 15.933594 12.007812 15.9375 12.011719 C 15.941406 12.011719 15.953125 12.007812 15.96875 12.007812 C 15.992188 12.007812 16.027344 12.007812 16.054688 12.007812 C 16.082031 12.007812 16.121094 12.003906 16.128906 12.007812 C 16.132812 12.007812 16.136719 12.011719 16.136719 12.011719 C 16.136719 12.011719 16.160156 12.011719 16.175781 12.007812 C 16.199219 12.003906 16.226562 11.992188 16.253906 11.988281 C 16.277344 11.988281 16.316406 11.988281 16.335938 11.988281 C 16.34375 11.988281 16.347656 11.992188 16.355469 11.988281 C 16.363281 11.988281 16.375 11.980469 16.382812 11.972656 C 16.40625 11.960938 16.441406 11.9375 16.46875 11.921875 C 16.492188 11.910156 16.507812 11.898438 16.53125 11.886719 C 16.558594 11.875 16.589844 11.859375 16.621094 11.847656 C 16.65625 11.832031 16.703125 11.8125 16.742188 11.796875 C 16.773438 11.785156 16.800781 11.773438 16.832031 11.761719 C 16.867188 11.75 16.910156 11.742188 16.945312 11.738281 C 16.972656 11.734375 17 11.734375 17.023438 11.734375 C 17.050781 11.730469 17.078125 11.730469 17.105469 11.730469 C 17.136719 11.730469 17.175781 11.730469 17.203125 11.730469 C 17.214844 11.730469 17.226562 11.734375 17.238281 11.730469 C 17.25 11.726562 17.257812 11.722656 17.265625 11.71875 C 17.285156 11.714844 17.308594 11.703125 17.332031 11.695312 C 17.359375 11.6875 17.386719 11.683594 17.417969 11.671875 C 17.457031 11.664062 17.515625 11.648438 17.5625 11.640625 C 17.59375 11.632812 17.628906 11.632812 17.65625 11.628906 C 17.683594 11.625 17.707031 11.625 17.730469 11.625 C 17.757812 11.625 17.792969 11.625 17.820312 11.625 C 17.84375 11.625 17.871094 11.625 17.894531 11.625 C 17.914062 11.625 17.9375 11.628906 17.953125 11.625 C 17.964844 11.621094 17.964844 11.613281 17.976562 11.609375 C 17.996094 11.597656 18.058594 11.585938 18.082031 11.59375 C 18.105469 11.605469 18.117188 11.636719 18.132812 11.644531 C 18.144531 11.648438 18.15625 11.644531 18.167969 11.644531 C 18.191406 11.644531 18.21875 11.640625 18.238281 11.65625 C 18.261719 11.675781 18.296875 11.753906 18.285156 11.785156 C 18.28125 11.808594 18.242188 11.828125 18.21875 11.839844 C 18.195312 11.847656 18.160156 11.839844 18.144531 11.84375 C 18.132812 11.847656 18.128906 11.847656 18.117188 11.851562 C 18.105469 11.863281 18.097656 11.882812 18.085938 11.894531 C 18.066406 11.914062 18.035156 11.9375 18.007812 11.953125 C 17.980469 11.972656 17.957031 11.972656 17.917969 11.988281 C 17.863281 12.015625 17.753906 12.082031 17.695312 12.117188 C 17.65625 12.136719 17.632812 12.152344 17.605469 12.167969 C 17.582031 12.179688 17.5625 12.195312 17.539062 12.207031 C 17.511719 12.21875 17.476562 12.230469 17.453125 12.238281 C 17.433594 12.242188 17.410156 12.238281 17.398438 12.242188 C 17.390625 12.242188 17.386719 12.246094 17.386719 12.25 C 17.382812 12.25 17.378906 12.253906 17.378906 12.253906 C 17.378906 12.253906 17.375 12.261719 17.375 12.261719 C 17.371094 12.261719 17.367188 12.265625 17.367188 12.265625 C 17.367188 12.265625 17.359375 12.269531 17.359375 12.269531 C 17.355469 12.273438 17.351562 12.277344 17.351562 12.277344 C 17.351562 12.277344 17.347656 12.277344 17.347656 12.277344 C 17.347656 12.277344 17.347656 12.277344 17.34375 12.28125 C 17.332031 12.289062 17.289062 12.308594 17.265625 12.324219 C 17.238281 12.34375 17.210938 12.367188 17.179688 12.382812 C 17.148438 12.402344 17.121094 12.417969 17.085938 12.429688 C 17.046875 12.445312 16.980469 12.460938 16.960938 12.464844 C 16.957031 12.464844 16.957031 12.460938 16.949219 12.464844 C 16.933594 12.464844 16.871094 12.492188 16.832031 12.503906 C 16.796875 12.519531 16.765625 12.542969 16.734375 12.546875 C 16.707031 12.554688 16.675781 12.542969 16.652344 12.554688 C 16.628906 12.558594 16.617188 12.585938 16.597656 12.597656 C 16.574219 12.609375 16.542969 12.613281 16.515625 12.621094 C 16.488281 12.632812 16.457031 12.644531 16.429688 12.652344 C 16.40625 12.65625 16.382812 12.660156 16.355469 12.660156 C 16.324219 12.660156 16.28125 12.664062 16.25 12.660156 C 16.222656 12.652344 16.199219 12.640625 16.171875 12.632812 C 16.148438 12.621094 16.121094 12.617188 16.101562 12.605469 C 16.078125 12.589844 16.054688 12.5625 16.039062 12.542969 C 16.019531 12.523438 16 12.507812 15.988281 12.488281 C 15.972656 12.464844 15.972656 12.414062 15.953125 12.402344 C 15.933594 12.386719 15.898438 12.402344 15.875 12.394531 C 15.847656 12.386719 15.8125 12.378906 15.792969 12.359375 C 15.773438 12.339844 15.75 12.265625 15.75 12.265625 M 16.164062 12.464844 C 16.175781 12.476562 16.179688 12.476562 16.179688 12.476562 C 16.179688 12.476562 16.164062 12.464844 16.164062 12.464844 " clip-rule="nonzero"/></clipPath></defs><g clip-path="url(#051f741e53)"><path fill="#ffffff" d="M 0.484375 0 L 29.515625 0 L 29.515625 29.03125 L 0.484375 29.03125 Z M 0.484375 0 " fill-opacity="1" fill-rule="nonzero"/><path fill="#ffffff" d="M 0.484375 0 L 29.515625 0 L 29.515625 29.03125 L 0.484375 29.03125 Z M 0.484375 0 " fill-opacity="1" fill-rule="nonzero"/></g><g clip-path="url(#45a1cd8949)"><g clip-path="url(#7df52400e2)"><path fill="#e719a1" d="M 15.65625 11.5 L 18.382812 11.5 L 18.382812 12.753906 L 15.65625 12.753906 Z M 15.65625 11.5 " fill-opacity="1" fill-rule="nonzero"/></g></g><g fill="#ffffff" fill-opacity="1"><g transform="translate(10.765254, 12.516715)"><g><path d="M 0.546875 0 L 0.3125 0 L 0.3125 -2.0625 L 0.609375 -2.0625 L 1.609375 -0.484375 L 1.65625 -0.5 L 1.65625 -2.0625 L 1.890625 -2.0625 L 1.890625 0 L 1.640625 0 L 0.578125 -1.6875 L 0.546875 -1.6875 Z M 0.546875 0 "/></g></g></g><g fill="#ffffff" fill-opacity="1"><g transform="translate(12.962078, 12.516715)"><g><path d="M 0.765625 0.03125 C 0.585938 0.03125 0.457031 -0.015625 0.375 -0.109375 C 0.289062 -0.203125 0.25 -0.335938 0.25 -0.515625 L 0.25 -1.5625 L 0.484375 -1.5625 L 0.484375 -0.53125 C 0.484375 -0.289062 0.59375 -0.171875 0.8125 -0.171875 C 0.945312 -0.171875 1.054688 -0.21875 1.140625 -0.3125 C 1.222656 -0.40625 1.265625 -0.554688 1.265625 -0.765625 L 1.265625 -1.5625 L 1.5 -1.5625 L 1.5 0 L 1.28125 0 L 1.28125 -0.25 L 1.25 -0.25 C 1.195312 -0.15625 1.132812 -0.0820312 1.0625 -0.03125 C 0.988281 0.0078125 0.890625 0.03125 0.765625 0.03125 Z M 0.765625 0.03125 "/></g></g></g><g fill="#ffffff" fill-opacity="1"><g transform="translate(14.72771, 12.516715)"><g><path d="M 0.265625 0 L 0.265625 -1.5625 L 0.484375 -1.5625 L 0.484375 -1.3125 L 0.515625 -1.3125 C 0.585938 -1.488281 0.722656 -1.578125 0.921875 -1.578125 C 1.035156 -1.578125 1.117188 -1.554688 1.171875 -1.515625 L 1.109375 -1.3125 L 1.078125 -1.3125 C 1.023438 -1.34375 0.960938 -1.359375 0.890625 -1.359375 C 0.765625 -1.359375 0.664062 -1.3125 0.59375 -1.21875 C 0.53125 -1.125 0.5 -0.972656 0.5 -0.765625 L 0.5 0 Z M 0.265625 0 "/></g></g></g><g fill="#ffffff" fill-opacity="1"><g transform="translate(15.928283, 12.516715)"><g><path d="M 0.765625 0.03125 C 0.585938 0.03125 0.457031 -0.015625 0.375 -0.109375 C 0.289062 -0.203125 0.25 -0.335938 0.25 -0.515625 L 0.25 -1.5625 L 0.484375 -1.5625 L 0.484375 -0.53125 C 0.484375 -0.289062 0.59375 -0.171875 0.8125 -0.171875 C 0.945312 -0.171875 1.054688 -0.21875 1.140625 -0.3125 C 1.222656 -0.40625 1.265625 -0.554688 1.265625 -0.765625 L 1.265625 -1.5625 L 1.5 -1.5625 L 1.5 0 L 1.28125 0 L 1.28125 -0.25 L 1.25 -0.25 C 1.195312 -0.15625 1.132812 -0.0820312 1.0625 -0.03125 C 0.988281 0.0078125 0.890625 0.03125 0.765625 0.03125 Z M 0.765625 0.03125 "/></g></g></g></svg>